# xmcd CD database file
# Copyright (C) 1996 Ti Kan
#
# Track frame offsets:
# 	182
# 	8402
# 	22700
# 	33747
# 	44840
# 	57875
# 	67502
# 	80600
# 	90762
# 	102505
# 	110945
# 	122577
# 	143320
# 	156077
#
# Disc length: 2220 seconds
#
# Revision: 1
# Processed by: cddbd v1.4b41PL1 Copyright (c) Steve Scherf et al.
# Submitted via: DiscPlay 3.4.1
#
DISCID=a208aa0e
DTITLE=Bob Wills and His Texas Playboys - The Tiffany Transcriptions Volume 1
DYEAR=1900
DGENRE=
TTITLE0=Nancy Jane
TTITLE1=Mission to Moscow
TTITLE2=Dinah
TTITLE3=Lone Star Rag
TTITLE4=Cotton Patch Blues
TTITLE5=Sweet Jennie Lee
TTITLE6=I Hear You Talkin'
TTITLE7=The Girl I Left Behind Me
TTITLE8=Straighten Up And Fly Right
TTITLE9=Little Betty Brown
TTITLE10=Nobody's Sweetheart Now
TTITLE11=Blackout Blues
TTITLE12=What's The Matter With The Mill
TTITLE13=Jumpin' At The Woodside
EXTD=
EXTT0=
EXTT1=
EXTT2=
EXTT3=
EXTT4=
EXTT5=
EXTT6=
EXTT7=
EXTT8=
EXTT9=
EXTT10=
EXTT11=
EXTT12=
EXTT13=
PLAYORDER=
